<?xml version="1.0" encoding="UTF-8" standalone="no"?>
<!DOCTYPE svg PUBLIC "-//W3C//DTD SVG 1.1//EN" "http://www.w3.org/Graphics/SVG/1.1/DTD/svg11.dtd">
<svg width="100%" height="100%" viewBox="0 0 48 48" version="1.1" xmlns="http://www.w3.org/2000/svg" xmlns:xlink="http://www.w3.org/1999/xlink" xml:space="preserve" xmlns:serif="http://www.serif.com/" style="fill-rule:evenodd;clip-rule:evenodd;stroke-linejoin:round;stroke-miterlimit:2;">
    <g transform="matrix(1,0,0,1,-119.389,-58.9901)">
        <g id="IconBorder" transform="matrix(1.30136,0,0,2.2086,113.894,82.9551)">
            <rect x="4.223" y="-10.851" width="36.884" height="21.733" style="fill:none;"/>
            <clipPath id="_clip1">
                <rect x="4.223" y="-10.851" width="36.884" height="21.733"/>
            </clipPath>
            <g clip-path="url(#_clip1)">
                <g transform="matrix(1.88136,0,0,1.12744,-150.54,-80.7885)">
                    <g id="AssetBorder">
                        <path id="Red" d="M101.716,65.069C101.716,63.393 100.332,62.032 98.627,62.032L85.5,62.032C83.795,62.032 82.411,63.393 82.411,65.069L82.411,78.272C82.411,79.948 83.795,81.309 85.5,81.309L98.627,81.309C100.332,81.309 101.716,79.948 101.716,78.272L101.716,65.069Z" style="fill:rgb(76,0,0);"/>
                    </g>
                </g>
            </g>
        </g>
    </g>
</svg>
