<?xml version="1.0" encoding="UTF-8" standalone="no"?>
<!DOCTYPE svg PUBLIC "-//W3C//DTD SVG 1.1//EN" "http://www.w3.org/Graphics/SVG/1.1/DTD/svg11.dtd">
<svg width="100%" height="100%" viewBox="0 0 100 200" version="1.1" xmlns="http://www.w3.org/2000/svg" xmlns:xlink="http://www.w3.org/1999/xlink" xml:space="preserve" xmlns:serif="http://www.serif.com/" style="fill-rule:evenodd;clip-rule:evenodd;stroke-linejoin:round;stroke-miterlimit:2;">
    <g id="Texture-Sheet" serif:id="Texture Sheet" transform="matrix(0.390625,0,0,0.78125,0,0)">
        <rect x="0" y="0" width="256" height="256" style="fill:none;"/>
        <g id="Inverse">
            <g id="Inverted">
                <g id="AvatarBorderInvertInverse" transform="matrix(0.5,0,0,0.25,0,192)">
                    <g transform="matrix(-1,0,0,1,258.236,0)">
                        <path d="M2.236,0L248.806,37.558L258.236,220.954L39.119,256L2.236,0Z" style="fill:white;"/>
                    </g>
                    <g transform="matrix(-1,0,0,1,258.236,0)">
                        <path d="M34.628,19.692L240.241,50.625L249.508,207.799L64.956,238.508L34.628,19.692Z"/>
                    </g>
                </g>
                <g id="AvatarBorderInvertInverseSelected" transform="matrix(0.5,0,0,0.25,128,192)">
                    <g transform="matrix(-1,0,0,1,258.236,0)">
                        <path d="M2.236,0L248.806,37.558L258.236,220.954L39.119,256L2.236,0Z" style="fill:white;"/>
                    </g>
                    <g transform="matrix(-1,0,0,1,258.236,0)">
                        <path d="M34.628,19.692L240.241,50.625L249.508,207.799L64.956,238.508L34.628,19.692Z" style="fill:rgb(9,95,237);"/>
                    </g>
                </g>
            </g>
            <g id="Normal">
                <g id="AvatarBorderInverseSelected" transform="matrix(0.5,0,0,0.25,128,128)">
                    <g transform="matrix(-1,0,0,1,258.236,0)">
                        <path d="M2.236,0L248.806,37.558L258.236,220.954L39.119,256L2.236,0Z"/>
                    </g>
                    <g transform="matrix(-1,0,0,1,258.236,0)">
                        <path d="M34.628,19.692L240.241,50.625L249.508,207.799L64.956,238.508L34.628,19.692Z" style="fill:rgb(9,95,237);"/>
                    </g>
                </g>
                <g id="AvatarBorderInverse" transform="matrix(0.5,0,0,0.25,1.81899e-14,128)">
                    <g transform="matrix(-1,0,0,1,258.236,0)">
                        <path d="M2.236,0L248.806,37.558L258.236,220.954L39.119,256L2.236,0Z"/>
                    </g>
                    <g transform="matrix(-1,0,0,1,258.236,0)">
                        <path d="M34.628,19.692L240.241,50.625L249.508,207.799L64.956,238.508L34.628,19.692Z" style="fill:white;"/>
                    </g>
                </g>
            </g>
        </g>
        <g id="Normal1" serif:id="Normal">
            <g id="Inverted1" serif:id="Inverted">
                <g id="AvatarBorderInvertSelected" transform="matrix(0.5,0,0,0.25,128,64)">
                    <g transform="matrix(1,0,0,1,-2.2365,0)">
                        <path d="M2.236,0L248.806,37.558L258.236,220.954L39.119,256L2.236,0Z" style="fill:white;"/>
                    </g>
                    <g transform="matrix(1,0,0,1,-2.2365,0)">
                        <path d="M34.628,19.692L240.241,50.625L249.508,207.799L64.956,238.508L34.628,19.692Z" style="fill:rgb(9,95,237);"/>
                    </g>
                </g>
                <g id="AvatarBorderInvert" transform="matrix(0.5,0,0,0.25,-3.15544e-30,64)">
                    <g transform="matrix(1,0,0,1,-2.2365,0)">
                        <path d="M2.236,0L248.806,37.558L258.236,220.954L39.119,256L2.236,0Z" style="fill:white;"/>
                    </g>
                    <g transform="matrix(1,0,0,1,-2.2365,0)">
                        <path d="M34.628,19.692L240.241,50.625L249.508,207.799L64.956,238.508L34.628,19.692Z"/>
                    </g>
                </g>
            </g>
            <g id="Normal2" serif:id="Normal" transform="matrix(1,0,0,0.5,-3.15544e-30,0)">
                <g id="AvatarBorderSelected" transform="matrix(0.5,0,0,0.5,128,0)">
                    <g transform="matrix(1,0,0,1,-2.2365,0)">
                        <path d="M2.236,0L248.806,37.558L258.236,220.954L39.119,256L2.236,0Z"/>
                    </g>
                    <g transform="matrix(1,0,0,1,-2.2365,0)">
                        <path d="M34.628,19.692L240.241,50.625L249.508,207.799L64.956,238.508L34.628,19.692Z" style="fill:rgb(9,95,237);"/>
                    </g>
                </g>
                <g id="AvatarBorder" transform="matrix(0.5,0,0,0.5,9.46633e-30,0)">
                    <g transform="matrix(1,0,0,1,-2.2365,0)">
                        <path d="M2.236,0L248.806,37.558L258.236,220.954L39.119,256L2.236,0Z"/>
                    </g>
                    <g transform="matrix(1,0,0,1,-2.2365,0)">
                        <path d="M34.628,19.692L240.241,50.625L249.508,207.799L64.956,238.508L34.628,19.692Z" style="fill:white;"/>
                    </g>
                </g>
            </g>
        </g>
    </g>
</svg>
